<svg width="141" height="127" viewBox="0 0 141 127" fill="none" xmlns="http://www.w3.org/2000/svg">
<g clip-path="url(#clip0_129_580)">
<path d="M115.171 0.381409L88.9967 15.3781L89.0466 54.4194L52.6148 14.8682L25.9107 0.391407L0.65625 14.6682V95.8603L26.1806 110.107L52.3748 95.6103V88.9518L87.9469 126.244L140.625 95.8303V14.6682L115.171 0.381409ZM91.4461 18.1775L116.111 32.3243V83.7929L91.4862 57.0689L91.4461 18.1775ZM3.10572 17.4776L25.4608 30.3848L87.0771 96.5901L87.0971 121.785L25.0409 56.7189V106.658L3.10572 94.4306V17.4776ZM49.9254 86.6023V94.1806L27.3704 106.658V62.7776L50.0653 86.6023H49.9254ZM138.296 94.4406L89.5265 122.584L89.5066 95.6403L26.9904 28.4752L4.33543 15.3981L25.9506 3.17079L51.125 16.8178L118.56 90.0116V30.9146L92.6758 16.0779L115.241 3.16079L138.296 16.0779V94.4406Z" fill="white"/>
</g>
<defs>
<clipPath id="clip0_129_580">
<rect width="139.969" height="125.875" fill="white" transform="translate(0.65625 0.375)"/>
</clipPath>
</defs>
</svg>
